<svg xmlns="http://www.w3.org/2000/svg" width="1363.867" height="369.255" xmlns:v="https://vecta.io/nano"><path d="M25.027 307.871c18.771 10.168 28.169 16.56 47.743 32.458.913.741 1.19 2.017.667 3.07-19.732 39.754-29.14 59.967-47.935 102.987l-5.433 12.507c28.143-23.348 44.298-32.147 72.688-43.574l.003-12.625-.004-87.654c0-.654.255-1.283.711-1.752 30.871-31.784 45.933-44.022 75.523-64.658 6.875-4.794 11.273-7.75 16.856-11.258-54.434.603-106.716 21.099-167.846 65.642 2.264 1.502 4.154 2.813 7.027 4.857zm652.856 65.46c5.526 3.491 9.887 6.051 16.727 9.897 29.162 16.394 44.014 23.034 74.485 30.043 1.142.263 1.951 1.279 1.951 2.451v98.261c28.458-11.572 44.499-20.77 74.953-46.625-2.219-1.437-4.034-2.664-6.829-4.599-19.009-13.174-28.488-21.067-48.297-40.219-.809-.782-1-2.007-.467-2.999 19.464-36.199 28.773-54.746 47.427-94.499l6.523-15.131c-28.935 20.694-55.442 35.748-80.809 45.908-28.594 11.453-56.713 17.209-85.664 17.512zm-11.196 54.934l11.253.347c20.229.689 33.593 1.146 57.4-5.353h0c4.976-1.358 8.92-2.161 12.735-2.939l5.364-1.125c-28.509-8.013-57.627-21.543-86.753-40.318l-.002 12.04zM195.642 242.117c-30.684 19.066-60.228 42.66-87.982 70.257 2.119-.463 4.114-.788 6.157-1.121 3.196-.521 6.501-1.059 10.674-2.199a2.67 2.67 0 0 1 .204-.047c28.826-5.352 42.888-6.154 70.949-5.617l-.004-49.086z" transform="matrix(-1.647182 0 0 1 1393.5164 -237.3726)"/><path d="M1089.566 244.598h0c47.68 0 93.123 3.637 137.007 10.915l.01-168.696c-187.011-31.572-367.341 10.442-541.772 51.079-88.155 20.537-179.312 41.774-270.44 53.356-100.406 12.763-190.208 12.191-274.322-1.762v168.702c187.014 31.581 367.348-10.437 541.783-51.079 88.151-20.538 179.305-41.776 270.429-53.359 48.018-6.104 93.6-9.158 137.305-9.158z"/><g opacity=".99" fill="#fff"><path d="M496.896 283.119q1.911 13.038-4.981 22.806-7.839 11.21-31.151 14.627-1.771.26-5.112.677-3.401.499-5.031.737-26.146 3.832-31.262 3.496-2.117-.124-2.377-1.895-1.111-7.582-2.515-23.083-1.333-15.511-2.454-23.164-1.205-8.219-5.378-30.769-1.064-5.779-3.334-17.317l-.216-.982q-.268-1.336 1.958-1.952 2.297-.626 16.397-2.693 22.604-3.313 26.451-3.732 17.524-1.917 26.552 1.899 11.97 5.122 14.317 21.136.613 4.181-1.253 9.231-1.354 3.6-3.842 7.367-2.196 3.289-2.227 3.077.073.496 2.071 1.289 5.375 2.107 9.113 7.856 3.361 5.153 4.275 11.388zm-36.316-35.427q-.893-6.094-7.278-7.185-3.557-.564-11.351.578-7.653 1.122-7.486 2.255.197 1.346.319 4.151.182 2.724.379 4.07 1.039 7.086 2.368 7.76.873.523 9.092-.681 15.234-2.233 13.957-10.948zm7.931 39.298q-.935-6.377-6.581-7.866-3.609-.919-11.262.203-9.141 1.34-9.816 2.163-.686.752.488 8.759 1.226 8.361 2.282 9.147 1.046.715 10.328-.645 7.653-1.122 10.594-2.783 4.871-2.813 3.968-8.978zm144.895 3.132q.102.491-1.258.991-2.578.972-13.308 3.191-9.187 1.9-12.57 2.161-1.586.109-1.826.012-.464-.123-1.272-1.2-1.618-2.518-4.768-7.497-4.186-6.447-12.835-18.919-1.828-2.474-6.445-1.812 2.133-.295-7.194 1.634-1.052.218-.312 3.794.986 4.769 3.786 14.062 2.87 9.279 3.856 14.048.247 1.192-.341 1.533-.967.273-1.935.546-4.08 1.136-12.846 2.949-10.029 2.074-12.149 2.074-2.121 0-2.483-1.753-1.595-7.714-4.114-23.428-2.448-15.729-4.058-23.513-6.135-29.665-10.905-46.011l-.273-.967q-.317-1.178 1.84-2.063 2.227-.899 21.286-5.28 12.916-2.964 20.631-4.559 15.99-3.307 27.583 1.828 13.114 5.771 16.29 21.13 2.118 10.239.434 16.95-1.684 6.711-8.419 14.1-1.381 1.456-1.178 2.438-.014-.07 12.196 15.833 12.211 15.903 12.588 17.727zm-42.465-56.815q-1.769-8.556-8.062-10.692-4.87-1.625-14.127.289-6.662 1.378-6.663 3.499.072 2.471 2.422 13.833.334 1.613 1.056 4.754.723 3.141 1.042 4.684.072.351 2.389.237 4.409-.254 9.107-1.225 15.359-3.176 12.835-15.379zm161.571 27.964q.291 1.256-1.341 2.148-1.964 1.043-12.848 3.561-9.977 2.309-12.967 2.413-2.485.061-3.727-2.445-4.697-9.498-6.184-9.889-1.229-.23-18.812 3.839-11.861 2.745-12.483 3.55-.928 1.391-.924 8.079.014 6.098-1.756 7.022-2.243 1.107-15.779 4.24-10.675 2.47-11.143.447-.42-1.814 5.451-48.233 6.389-50.214 6.788-55.158.224-2.845 1.34-3.103 1.884-.436 5.872-.991 4.058-.571 6.011-1.024 1.884-.436 5.463-1.485 3.633-1.135 5.447-1.555 1.326-.307 2.975 1.737 5.114 6.535 31.58 45.617 26.6 39.345 27.036 41.229zm-64.177-52.113q-.755 3.409-1.87 14.473-1.249 11.756-.813 13.64.291 1.256 4.509.427 2.195-.361 7.149-1.507 4.605-1.066 4.835-2.295.059-.381-.087-1.009-.533-2.302-6.148-11.956-5.465-9.32-7.576-11.772zM827.534 141.4q1.72 7.981 4.475 24.163 2.81 16.097 4.545 24.148l9.944 46.135q.407 1.89-1.623 2.328-1.68.362-5.08 1.242-3.33.864-5.01 1.226-1.82.392-5.521.897-3.701.505-5.521.897-1.26.272-3.508-1.661-6.504-5.704-29.171-25.214-6.234-5.47-18.836-16.013-.371-.36-1.231-.614-.454.611-.228 1.661 1.75 8.121 5.671 24.272 3.991 16.136 5.741 24.257.528 2.45-1.362 2.858l-24.222 5.221q-2.03.438-2.498-1.733-1.63-7.561-4.219-22.973-2.519-15.428-4.164-23.058-1.735-8.051-5.891-23.932-4.085-15.896-5.806-23.877-.332-1.54 2.398-2.129 4.06-.875 9.89-2.718 1.37-.442 5.334-2.102 3.365-1.385 5.395-1.822.84-.181 3.103 1.822l33.823 30.145q4.541 4.076 13.619 11.863 2.218 1.793 3.478 1.521.91-.196-.267-5.657-1.584-7.351-5.608-21.941-3.954-14.606-5.553-22.026-.558-2.59.912-2.907 4.2-.905 12.596-3.081 8.395-2.176 12.596-3.081 1.33-.287 1.798 1.884zm132.783 25.509q3.308 20.793-7.629 38.196-9.64 15.529-30.886 19.634-4.08.794-22.539 3.731-3.466.551-10.501 1.453-6.965.89-10.43 1.442-2.051.326-2.31-1.3-1.238-7.78-3.147-23.429-1.85-15.732-3.088-23.511-1.294-8.133-4.507-24.228-3.154-16.177-4.436-24.24-.236-1.485 1.77-2.094 4.932-1.365 16.389-3.187 21.783-3.465 28.321-3.853 17.032-.969 27.589 4.313 9.924 4.948 16.91 15.584 6.672 10.033 8.495 21.491zm-27.088 4.309q-1.901-11.953-10.249-18.384-8.463-6.703-20.345-4.813-10.892 1.733-10.43 4.632.664 4.173 1.861 12.612 1.186 8.368 1.85 12.541.653 4.102 2.11 12.354 1.447 8.182 2.11 12.354.484 3.041 11.8 1.241 12.236-1.946 17.943-11.194 5.351-8.755 3.348-21.345z"/></g></svg>