<?xml version="1.0" encoding="UTF-8" standalone="no"?>
<!-- Generator: Adobe Illustrator 19.2.1, SVG Export Plug-In . SVG Version: 6.00 Build 0)  -->

<svg
   version="1.1"
   id="Layer_1"
   x="0px"
   y="0px"
   width="1363.8671"
   height="369.25473"
   viewBox="0 0 1363.8671 369.25473"
   sodipodi:docname="logo-org.svg"
   inkscape:version="1.2.1 (9c6d41e410, 2022-07-14)"
   inkscape:export-filename="logo-opt.svg"
   inkscape:export-xdpi="96"
   inkscape:export-ydpi="96"
   xmlns:inkscape="http://www.inkscape.org/namespaces/inkscape"
   xmlns:sodipodi="http://sodipodi.sourceforge.net/DTD/sodipodi-0.dtd"
   xmlns:xlink="http://www.w3.org/1999/xlink"
   xmlns="http://www.w3.org/2000/svg"
   xmlns:svg="http://www.w3.org/2000/svg">
  <defs
     id="defs11" />
  <sodipodi:namedview
     id="namedview9"
     pagecolor="#ffffff"
     bordercolor="#000000"
     borderopacity="0.25"
     inkscape:showpageshadow="2"
     inkscape:pageopacity="0.0"
     inkscape:pagecheckerboard="0"
     inkscape:deskcolor="#d1d1d1"
     showgrid="false"
     inkscape:zoom="0.63912519"
     inkscape:cx="578.91631"
     inkscape:cy="59.45627"
     inkscape:window-width="1920"
     inkscape:window-height="1009"
     inkscape:window-x="-8"
     inkscape:window-y="-8"
     inkscape:window-maximized="1"
     inkscape:current-layer="layer1" />
  <g
     id="g3573"
     transform="matrix(-1.6471825,0,0,1,1393.5164,-237.3726)"
     style="display:inline;stroke-width:0.779164">
    <path
       d="m 25.0274,307.8713 c 18.7709,10.1683 28.1686,16.5597 47.7425,32.4578 0.9131,0.7411 1.1901,2.0167 0.667,3.0697 -19.7316,39.7544 -29.1396,59.9668 -47.935,102.9874 -2.1969,5.0201 -3.7671,8.635 -5.4326,12.5072 28.143,-23.3484 44.2976,-32.1474 72.6877,-43.5741 l 0.0034,-12.6251 -0.0039,-87.6541 c 0,-0.6542 0.2549,-1.2829 0.7107,-1.752 30.8709,-31.7845 45.9331,-44.022 75.5226,-64.6578 6.8752,-4.7936 11.2729,-7.7504 16.8559,-11.2577 -54.4336,0.6027 -106.7158,21.099 -167.8457,65.6417 2.2642,1.5019 4.1537,2.8128 7.0274,4.857 z"
       id="path3563"
       style="stroke-width:0.779164" />
    <path
       d="m 677.8834,373.3311 c 5.5264,3.4906 9.8869,6.0515 16.7272,9.8972 29.1617,16.3942 44.0142,23.0341 74.4853,30.0433 1.1419,0.2628 1.9508,1.2794 1.9508,2.4509 v 98.261 C 799.505,502.411 815.5461,493.2137 846,467.3584 c -2.2191,-1.4371 -4.0343,-2.6645 -6.829,-4.5987 -19.0091,-13.1737 -28.4879,-21.067 -48.297,-40.2195 -0.8094,-0.7824 -1,-2.0074 -0.4666,-2.999 19.4644,-36.1994 28.7727,-54.7458 47.4267,-94.4992 2.6822,-6.1748 4.4572,-10.2872 6.5225,-15.131 -28.9348,20.6937 -55.4418,35.7476 -80.8094,45.9081 -28.5939,11.4532 -56.7128,17.209 -85.6638,17.512 z"
       id="path3567"
       style="stroke-width:0.779164" />
    <path
       d="m 666.6865,428.2651 c 4.0019,0.0992 7.6777,0.2249 11.2528,0.3467 20.2286,0.6891 33.5929,1.1464 57.4,-5.3526 v 0 c 4.9759,-1.3575 8.9203,-2.1611 12.7351,-2.9386 1.7878,-0.364 3.5368,-0.7205 5.3644,-1.1252 -28.5085,-8.0127 -57.6274,-21.5434 -86.7528,-40.3177 l -0.002,12.0401 z"
       id="path3569"
       style="stroke-width:0.779164" />
    <path
       d="m 195.6416,242.1172 c -30.6838,19.0661 -60.2276,42.66 -87.9821,70.2569 2.1193,-0.4632 4.1144,-0.7883 6.1571,-1.1208 3.1959,-0.5206 6.5009,-1.0589 10.6737,-2.1994 0.0673,-0.0182 0.1356,-0.0339 0.2038,-0.0467 28.8257,-5.3516 42.8879,-6.1541 70.9485,-5.6168 l -0.004,-49.0858 z"
       id="path3571"
       style="stroke-width:0.779164" />
  </g>
  <g
     inkscape:groupmode="layer"
     id="layer1"
     inkscape:label="Layer 1">
    <path
       d="m 1089.5663,244.5976 v 0 c 47.6803,0 93.1228,3.6365 137.0072,10.9153 l 0.01,-168.6957 C 1039.5721,55.2454 859.24271,97.2596 684.81119,137.8966 596.65579,158.4337 505.49874,179.6706 414.371,191.253 313.96534,204.0156 224.16277,203.4439 140.04906,189.4912 v 168.7022 c 187.01353,31.5811 367.34772,-10.437 541.78336,-51.0789 88.15145,-20.538 179.30504,-41.7755 270.42883,-53.3588 48.01765,-6.1041 93.60015,-9.1581 137.30505,-9.1581 z"
       id="path3565-3"
       style="display:inline;fill:#000000;fill-opacity:1;stroke-width:0.999999"
       sodipodi:insensitive="true" />
    <text
       xml:space="preserve"
       style="font-style:normal;font-variant:normal;font-weight:bold;font-stretch:normal;font-size:120px;line-height:normal;font-family:'Berlin Sans FB Demi';-inkscape-font-specification:'Berlin Sans FB Demi Bold';text-decoration-color:#000000;letter-spacing:0px;opacity:0.99;fill:#ffffff;fill-opacity:1;stop-color:#000000"
       id="text926"
       transform="translate(6,-34)"><textPath
         xlink:href="#path3565-3"
         id="textPath978"
         style="font-style:normal;font-variant:normal;font-weight:bold;font-stretch:normal;font-family:'Berlin Sans FB Demi';-inkscape-font-specification:'Berlin Sans FB Demi Bold';display:inline">                                                             <tspan
   style="font-style:normal;font-variant:normal;font-weight:bold;font-stretch:normal;font-size:173.333px;font-family:'Berlin Sans FB Demi';-inkscape-font-specification:'Berlin Sans FB Demi Bold';fill:#ffffff;fill-opacity:1"
   id="tspan1083"
   dx="0 1 2 0 -1"><tspan
   style="font-size:146.667px"
   id="tspan1360"
   dx="0 20 20 15 15">BRAND</tspan> </tspan></textPath></text>
  </g>
</svg>
